<svg xmlns="http://www.w3.org/2000/svg" width="24" height="23" viewBox="0 0 24 23">
  <g id="Group_10528" data-name="Group 10528" transform="translate(0.371)">
    <rect id="Rectangle_1209" data-name="Rectangle 1209" width="24" height="23" transform="translate(-0.371)" fill="none"/>
    <path id="Icon_material-archive" data-name="Icon material-archive" d="M18.591,6.434,17.385,4.977a1.259,1.259,0,0,0-1-.477H9.1A1.289,1.289,0,0,0,8.1,4.977L6.9,6.434a1.7,1.7,0,0,0-.4,1.1V18.374a1.739,1.739,0,0,0,1.734,1.734h9.021a1.739,1.739,0,0,0,1.734-1.734V7.535A1.7,1.7,0,0,0,18.591,6.434Zm-5.846,10.64L7.976,12.3h3.035V10.57h3.469V12.3h3.035ZM8.338,6.234l.7-.867h7.287l.815.867Z" transform="translate(-0.94 -0.446)" fill="#bfc7d8"/>
  </g>
</svg>
